<?xml version="1.0" encoding="UTF-8" standalone="no"?>
<svg
   xmlns:dc="http://purl.org/dc/elements/1.1/"
   xmlns:cc="http://creativecommons.org/ns#"
   xmlns:rdf="http://www.w3.org/1999/02/22-rdf-syntax-ns#"
   xmlns:svg="http://www.w3.org/2000/svg"
   xmlns="http://www.w3.org/2000/svg"
   xmlns:sodipodi="http://sodipodi.sourceforge.net/DTD/sodipodi-0.dtd"
   xmlns:inkscape="http://www.inkscape.org/namespaces/inkscape"
   width="160.5"
   height="51"
   viewBox="0 0 120.38987 38.254845"
   version="1.1"
   id="svg5"
   sodipodi:docname="logo.svg"
   inkscape:version="0.92.1 r15371">
  <metadata
     id="metadata11">
    <rdf:RDF>
      <cc:Work
         rdf:about="">
        <dc:format>image/svg+xml</dc:format>
        <dc:type
           rdf:resource="http://purl.org/dc/dcmitype/StillImage" />
        <dc:title></dc:title>
      </cc:Work>
    </rdf:RDF>
  </metadata>
  <defs
     id="defs9" />
  <sodipodi:namedview
     pagecolor="#ffffff"
     bordercolor="#666666"
     borderopacity="1"
     objecttolerance="10"
     gridtolerance="10"
     guidetolerance="10"
     inkscape:pageopacity="0"
     inkscape:pageshadow="2"
     inkscape:window-width="1600"
     inkscape:window-height="837"
     id="namedview7"
     showgrid="false"
     inkscape:zoom="9.6404795"
     inkscape:cx="106.91741"
     inkscape:cy="16.345299"
     inkscape:window-x="-8"
     inkscape:window-y="-8"
     inkscape:window-maximized="1"
     inkscape:current-layer="svg5"
     units="px" />
  <path
     id="Selection #2"
     d="m 18.708018,0.450914 c 1.082891,-0.08854 1.400827,0.03813 2.390494,0.145832 0.968157,0.102709 1.91957,0.165 2.868594,0.415947 7.214507,1.910023 12.342098,7.859998 13.487148,15.160592 0.14813,0.941861 0.370524,1.917201 0.370524,2.868614 0,0.951414 -0.222307,1.926745 -0.370524,2.86859 -1.015957,6.483059 -4.857485,11.507887 -10.857602,14.213876 -2.170572,0.977733 -5.510088,1.647078 -7.888634,1.55388 C 13.929423,37.491772 9.5046235,35.775343 6.0479708,32.407183 -1.2884503,25.261996 -1.2621548,13.206672 5.8208734,5.903662 7.850399,3.809588 11.548492,1.62944 14.405131,0.952922 c 0,0 3.346691,-0.502008 3.346691,-0.502008 0,0 0.956196,0 0.956196,0 z M 12.014639,4.58649 c -9.1818801,7.104595 -7.3220776,21.392612 3.346688,25.960897 1.582505,0.676498 3.77937,1.121148 5.498133,1.161756 1.697244,0.03804 3.406451,-0.279695 5.020035,-0.795997 C 36.720378,27.437335 39.622436,13.445724 31.607124,5.67658 30.256489,4.366574 28.356047,3.23109 26.596652,2.561738 24.1679,1.641399 21.758278,1.416691 19.18612,1.660523 16.578088,2.090813 14.130227,2.949007 12.014639,4.58649 Z m 15.172459,6.454369 c 1.725936,1.733128 0.693234,4.558721 1.355408,7.283897 0.2988,1.238265 1.2048,1.941079 0.53547,2.765801 -0.619146,0.762584 -2.971381,0.83906 -3.915633,0.817563 -0.731489,-0.01739 -2.201648,-0.09565 -2.619978,-0.788892 -0.437463,-0.726691 0.23905,-1.615957 0.490052,-2.31637 0.279696,-0.929924 0.322724,-2.89253 0,-3.824818 -0.502006,-1.649451 -1.802432,-1.642285 -2.371364,-0.681299 -0.329887,0.556998 -0.279691,1.477338 -0.279691,2.115585 0,0.733903 -0.05259,1.702055 0.164937,2.390532 0.229486,0.714747 0.946633,1.537073 0.365746,2.268549 -0.75779,0.953817 -3.946706,0.910774 -5.072627,0.69088 -0.609575,-0.119565 -1.544257,-0.329883 -1.661393,-1.073337 -0.109963,-0.712367 0.638259,-1.176116 0.870141,-2.125154 0.112345,-0.468539 0.112345,-3.595318 0,-4.063868 -0.260566,-1.066163 -1.312386,-1.690087 -0.862963,-2.565 0.212752,-0.415967 0.769736,-0.650237 1.176115,-0.82234 0.891656,-0.377707 3.628773,-1.429525 4.467834,-0.906007 0.513957,0.320342 0.638258,1.11636 0.791246,1.663806 0,0 0.478105,0 0.478105,0 1.238266,-2.192116 4.314829,-2.610448 6.088586,-0.829528 z"
     style="fill:#4285f4;fill-opacity:1;stroke:#4285f4;stroke-width:0.23904926;stroke-opacity:1"
     inkscape:connector-curvature="0" />
  <path
     id="Selection #1"
     d="m 28.987145,3.613567 c 10.451222,6.330056 9.342026,21.784685 -1.673361,26.828624 -2.493276,1.14267 -4.250289,1.30045 -6.932422,1.269365 -2.414397,-0.02833 -5.127608,-0.896454 -7.171474,-2.165841 C 6.5069458,25.376754 4.2359762,17.036272 7.5491986,9.957978 9.6647853,5.437507 13.699937,2.731466 18.468967,1.701148 c 3.578572,-0.492436 7.396198,0.02146 10.518178,1.912419 z m -9.186673,6.609753 c -0.447022,-0.291654 -1.097237,-0.1075 -1.57055,0 -0.968154,0.255791 -3.365817,0.884476 -3.906067,1.699649 -0.772128,1.159391 0.908384,1.2311 1.027907,3.294112 0.03345,0.604809 -0.19602,3.062258 -0.368131,3.585777 -0.246221,0.748225 -0.932293,1.362575 -0.55938,2.096455 0.535476,1.056611 3.231952,0.786476 4.283767,0.772089 0.956198,-0.01522 2.361799,-0.112261 2.256634,-1.439034 0,0 -0.53787,-1.668572 -0.53787,-1.668572 0,0 0,-2.390511 0,-2.390511 -0.04546,-0.37531 -0.05975,-1.087662 0,-1.429525 0.272512,-0.944246 1.176118,-1.625546 2.039087,-0.874913 0.963366,0.834267 0.968155,3.786546 0.631092,4.934011 -0.23187,0.786455 -0.920331,1.587266 -0.509181,2.287699 0.380094,0.647824 1.448646,0.578497 2.096463,0.580845 1.056596,0.0065 3.949096,0.284522 4.474998,-0.784039 0.372922,-0.757802 -0.380078,-1.462988 -0.68128,-2.323567 -0.301211,-0.867757 -0.198414,-2.388115 -0.207979,-3.346715 -0.0263,-2.141886 -0.291643,-4.26466 -2.629543,-5.077437 -0.681281,-0.165 -1.453418,-0.219936 -2.151444,0 -1.21436,0.23428 -2.003239,1.211984 -3.10764,1.730743 -0.03344,-0.571341 -0.02631,-1.312401 -0.580889,-1.647067 z"
     style="fill:#ffffff;fill-opacity:1;stroke:none;stroke-width:0.23904926;stroke-opacity:1"
     inkscape:connector-curvature="0" />
  <path
     id="Selection"
     d="m 83.181983,22.86192 c -0.01522,1.941121 -3.886954,1.441471 -5.189756,1.439015 -0.925113,-0.0043 -2.094061,0.105217 -2.481328,-0.968083 -0.404015,-1.118778 0.690821,-1.517993 1.006391,-2.856643 0,0 0,-2.868607 0,-2.868607 0,0 0.258143,-3.107674 0.258143,-3.107674 -0.02848,-0.513957 -0.21513,-2.141897 -0.46131,-2.531542 -0.349053,-0.554591 -1.121155,-0.676508 -1.121155,-1.534691 0,-0.89407 0.910781,-1.26938 1.603998,-1.568191 2.074939,-0.896444 3.043083,-1.058985 5.259115,-1.058985 0,0 0,7.888664 0,7.888664 0.669287,-0.143328 1.331498,-0.29402 1.661374,-0.982486 0.34185,-0.714767 -0.305989,-1.611211 0.982472,-2.151459 1.154639,-0.482894 5.514865,-0.554602 5.883028,1.006402 0.351393,1.496462 -1.243098,1.436692 -3.267835,3.083758 1.501255,1.243057 2.039133,2.567417 4.063894,4.161852 0.760152,0.597633 1.623115,1.123559 1.326697,2.26617 -0.258152,0.99206 -1.211969,0.97056 -2.043884,0.982539 -1.001631,0.01304 -4.020774,0.141087 -4.780972,-0.243805 -0.874911,-0.444693 -2.722769,-2.914073 -3.585759,-3.820049 0.141131,1.776143 0.894079,1.881276 0.886887,2.863815 z M 95.203794,11.291878 c 2.357011,-1.477337 2.180124,-1.809627 5.020036,-1.812023 0,0.499623 -0.038,1.446275 0.14333,1.886127 0.51396,1.245464 2.3403,0.982507 3.44227,0.982507 0,0 0,2.629551 0,2.629551 -0.74818,0 -2.1968,-0.09791 -2.81356,0.279687 -1.113972,0.681289 -0.96576,3.736359 -0.31076,4.704521 0.97531,1.443852 2.68213,-0.210372 3.0455,1.266936 0.51868,2.113233 -2.69887,3.052707 -4.224014,3.071751 -1.948254,0.02194 -3.994513,-0.121935 -4.644737,-2.390446 -0.234252,-0.812761 -0.117195,-3.949097 -0.136282,-5.020051 -0.01261,-0.652611 -0.0078,-1.307608 -0.5522,-1.768961 -0.461307,-0.389676 -1.037381,-0.363363 -1.599161,-0.382488 0.02861,-2.263813 0.812761,-2.311626 2.62955,-3.447111 z m -43.985082,1.298047 c 1.635081,-0.659789 4.477383,-0.239062 5.39057,1.441464 0.664537,1.223942 0.58325,3.167423 0.585706,4.532407 0,0.70758 -0.03333,1.479724 0.212631,2.151456 0.332341,0.917952 1.472554,2.008033 0.600013,2.985685 -0.750635,0.841498 -3.743479,0.614389 -4.876587,0.573757 0,0 -0.951407,0 -0.951407,0 -2.163393,-0.437477 -0.511563,-2.218407 -0.482871,-4.276589 0.01022,-0.815166 0.09561,-2.407253 -0.279726,-3.093313 -0.65017,-1.183317 -1.883661,-1.07813 -2.302011,0.229479 -0.320335,1.104422 -0.3538,2.710834 0,3.82002 0.2247,0.798435 0.9275,1.735516 0.423119,2.562648 -0.626304,1.032646 -2.98095,0.786452 -4.056661,0.762496 0,0 -1.434306,0 -1.434306,0 -2.866189,-0.420696 -1.025524,-2.627107 -0.853404,-3.095644 0.20313,-0.55221 0.356204,-2.003247 0.372921,-2.619995 0.01478,-0.647841 0.05735,-1.553837 -0.241439,-2.12995 -0.279667,-0.545039 -0.867711,-0.922724 -1.035058,-1.474931 -0.370527,-1.235901 1.14266,-1.608816 1.996065,-1.893283 0.92033,-0.305979 3.320391,-1.113975 4.164247,-0.473332 0.368124,0.282083 0.494824,0.99686 0.616727,1.429526 0.640665,-0.442228 1.470152,-1.159381 2.151454,-1.431901 z m 14.342956,11.66329 c -0.468513,0.05978 -1.183269,0.05304 -1.673319,0 -3.569033,0.0065 -3.870211,-3.033572 -3.812867,-5.928459 0.01478,-0.705217 0.09313,-1.711608 -0.1865,-2.366616 -0.356187,-0.834288 -1.723559,-1.472546 -1.013579,-2.550666 0.363359,-0.554613 1.300457,-0.693237 1.905222,-0.80082 1.924344,-0.341853 2.873407,-0.258165 4.814426,-0.258165 0,0 0,6.454369 0,6.454369 0.117196,0.666935 0.248637,1.816766 0.956222,2.110805 1.685298,0.702761 1.443837,-2.725178 1.412798,-3.554685 -0.09085,-2.476573 -0.905979,-2.199251 -0.898848,-3.327589 0.01022,-1.467755 2.916419,-1.670963 3.994543,-1.6829 0.547407,-0.0041 1.599248,-0.06459 2.048644,0.243811 0.533056,0.368145 0.56893,1.082923 0.573713,1.668588 0,0 -0.22232,2.151438 -0.22232,2.151438 0,0 0,2.390532 0,2.390532 -0.0065,2.784912 0.681307,2.03907 1.030287,3.346673 0.255813,0.956189 -0.48765,1.451015 -1.278887,1.723602 -0.858178,0.293976 -4.149898,0.748165 -4.84313,0.191304 -0.317974,-0.255741 -0.334665,-0.599998 -0.415981,-0.958578 -0.724289,0.349037 -1.647063,0.934708 -2.390465,1.147493 z M 111.4424,15.934244 c -0.13626,-0.743455 -0.56416,-1.443879 -1.41041,-1.01835 -0.84143,0.425498 -1.74025,2.366584 -3.57855,1.898044 -0.40404,-0.102707 -0.66217,-0.28206 -0.82712,-0.676507 -0.41356,-0.994454 0.30598,-1.979336 1.07327,-2.533937 1.72361,-1.247839 3.69336,-1.278922 5.71572,-1.255005 0.60242,0.0063 1.08769,0.01456 1.67337,0.191252 3.64547,1.099631 2.60324,4.659094 2.88769,6.743638 0.20085,1.453421 0.91792,1.297997 1.09247,2.180117 0.39682,2.022324 -2.1873,2.91403 -3.74112,2.827921 -1.39128,-0.0787 -1.62321,-0.6502 -2.39049,-0.6502 -0.60246,0 -1.10444,0.475746 -2.15145,0.61435 -2.6439,0.351455 -5.22801,-0.341806 -5.00808,-3.540291 0.23184,-3.332357 4.25269,-3.265442 6.6647,-3.585752 0,0 0,-1.195255 0,-1.195255 z m -0.90362,3.490131 c -1.96973,0.862971 0.67412,3.382566 0.91317,0.807993 0,0 0,-0.951429 0,-0.951429 -0.30121,0.02625 -0.62151,0.01457 -0.91317,0.143326 z m -58.124826,8.940479 c 0,0 -0.970498,2.15142 -0.970498,2.15142 -0.327533,1.102065 -0.243881,2.395319 -1.044698,3.310859 -0.805572,0.922736 -3.370583,1.412799 -2.765778,-0.92032 0,0 0.478089,0 0.478089,0 0,0 0.239039,0.956213 0.239039,0.956213 2.225554,-0.693265 0.736289,-1.90525 2.868604,-4.542004 0,0 -1.673339,0 -1.673339,0 0,0 0,1.673341 0,1.673341 0,0 -0.956195,0 -0.956195,0 0.03104,-3.066965 1.276506,-2.629509 3.824776,-2.629509 z m 2.151452,0 c 0,0 0,1.195255 0,1.195255 0,0 -0.956194,-0.239087 -0.956194,-0.239087 -0.753015,2.531576 -0.485285,1.78095 -0.478117,4.302917 2.3929,-1.168952 0.822376,-2.44788 3.107637,-2.629576 0,0 -0.478094,2.629576 -0.478094,2.629576 1.874176,-1.054193 0.274894,-2.443119 2.629537,-2.629576 0,0 -0.478135,2.629576 -0.478135,2.629576 0,0 0.717207,0 0.717207,0 0.0033,-1.446235 -0.255763,-2.345076 1.434263,-2.629576 0,0 -0.478089,2.390556 -0.478089,2.390556 1.2694,-0.695697 0.977739,-1.314799 1.938708,-1.974621 0.788863,-0.545015 2.122731,-0.368087 3.081331,-0.415935 0,0 -0.478076,2.629576 -0.478076,2.629576 0,0 0.956171,-0.478128 0.956171,-0.478128 -0.396815,1.305232 -1.611176,2.012817 -2.151469,0.717215 -1.981696,1.398385 -1.898002,0.160217 -3.129104,0.136304 -0.396839,-0.01087 -4.180998,1.439146 -5.237576,-0.136304 0,0 -0.717129,0.446976 -0.717129,0.446976 -1.993708,0.910759 -1.747482,-0.65978 -1.976958,-1.859819 0,0 -0.413578,-1.216711 -0.413578,-1.216711 2.005689,-1.618407 0.738695,-2.674989 3.107665,-2.868618 z m 40.683799,0.313194 c 0.499619,-0.279715 1.073332,-0.2845 1.627909,-0.313194 -0.01261,1.293276 0.01522,1.520339 -0.717183,2.629509 0,0 1.195267,0 1.195267,0 0,0 -0.956145,2.629576 -0.956145,2.629576 2.543452,-1.0303 0.688447,-2.43588 3.107615,-2.629576 0,0 -0.478089,2.868663 -0.478089,2.868663 2.067751,-1.8718 0.793617,-2.703728 2.868571,-2.868663 0,0 -0.47806,2.868663 -0.47806,2.868663 1.85735,-2.216035 0.58559,-5.170674 4.06378,-5.498172 0,0 -0.47813,2.629509 -0.47813,2.629509 0,0 1.19528,0.239109 1.19528,0.239109 0,0 -0.71715,2.390467 -0.71715,2.390467 2.21602,-1.403256 0.61671,-2.450274 2.8686,-2.629576 0,0 -0.47806,2.868663 -0.47806,2.868663 2.06775,-1.8718 0.79363,-2.703728 2.86857,-2.868663 0,0 -0.4781,2.868663 -0.4781,2.868663 0,0 2.47892,-2.732424 2.47892,-2.732424 0,0 0.86778,-0.136304 0.86778,-0.136304 0.59521,2.285358 0.81514,3.54753 -2.15146,3.585767 0,0 0,-0.956191 0,-0.956191 -0.74104,0.621498 -1.84066,1.558602 -2.39047,0.239087 -0.90841,0.640604 -1.65185,1.101974 -2.39049,0 -1.02317,0.674082 -1.18812,0.686017 -2.39051,0.717104 0,0 0.47811,-2.629576 0.47811,-2.629576 -0.42313,0.329891 -0.67652,0.470976 -0.95146,0.96578 -0.0931,0.16737 -0.70278,2.708472 -1.43905,0.946692 -0.7769,0.547345 -1.65899,1.180865 -2.15142,0 -0.908425,0.640604 -1.651849,1.101974 -2.390521,0 -1.027926,0.726691 -1.164145,0.700387 -2.390502,0.717104 -0.08611,-1.914811 -0.415937,-1.632687 0.717124,-2.868574 -1.47248,0.721931 -1.40077,1.384037 -1.673322,2.868574 0,0 -0.956198,0 -0.956198,0 0,0 0,-0.717104 0,-0.717104 -1.295658,0.09304 -2.88291,1.405558 -3.824786,0 0,0 -1.384085,1.044602 -1.384085,1.044602 -1.293255,1.209604 -0.800815,1.749863 -2.918776,1.823993 0.04261,-1.226408 0.07404,-1.288474 0.956211,-2.151491 -0.767396,-0.06696 -0.891676,0.01522 -1.195244,-0.717104 -0.776952,0.547345 -1.659048,1.180865 -2.15148,0 -0.908365,0.640604 -1.651855,1.101974 -2.390507,0 -1.023104,0.674082 -1.188032,0.686017 -2.39045,0.717104 0,0 0.239,-2.390467 0.239,-2.390467 -0.946597,1.128321 -1.455763,3.337132 -2.151389,1.673363 -0.77695,0.547345 -1.659039,1.180865 -2.151469,0 -0.908361,0.640604 -1.651839,1.101974 -2.390513,0 0,0 -1.384055,1.044602 -1.384055,1.044602 -1.293252,1.209604 -0.800847,1.749863 -2.918782,1.823993 0.04278,-1.226408 0.07404,-1.288474 0.956152,-2.151491 0,0 -1.195246,0 -1.195246,0 0,0 0.478137,-3.585767 0.478137,-3.585767 0,0 1.434272,0 1.434272,0 0,0 -0.717163,2.629576 -0.717163,2.629576 1.718813,-1.611168 0.784085,-2.457424 2.868641,-2.629576 0,0 -0.95623,2.868663 -0.95623,2.868663 0,0 2.639076,-2.586555 2.639076,-2.586555 0,0 2.859058,-0.282108 2.859058,-0.282108 0,0 -0.478095,2.629576 -0.478095,2.629576 0.996852,-0.841431 1.109165,-1.398472 1.434278,-2.629576 0,0 1.195261,0.47815 1.195261,0.47815 0,0 1.912422,-0.47815 1.912422,-0.47815 0,0 -0.478142,2.629576 -0.478142,2.629576 0,0 2.400057,-2.347468 2.400057,-2.347468 0,0 2.859026,-0.282108 2.859026,-0.282108 0,0 -0.478078,2.629576 -0.478078,2.629576 1.030308,-0.858215 1.14263,-1.360191 1.43428,-2.629576 0,0 1.434333,0 1.434333,0 0,0 -0.71715,2.629576 -0.71715,2.629576 1.718747,-1.611168 0.784054,-2.457424 2.868576,-2.629576 0,0 -0.9562,2.868663 -0.9562,2.868663 0,0 2.203997,-2.452713 2.203997,-2.452713 0,0 2.337929,-0.41595 2.337929,-0.41595 0,0 -0.239037,2.390556 -0.239037,2.390556 1.694891,-0.953845 0.860537,-3.688584 2.674965,-4.706871 z m 0.432663,1.838226 c 0,0 0.478063,-1.434272 0.478063,-1.434272 -0.513907,0.559346 -0.662128,0.671711 -0.478063,1.434272 z m -0.478074,0 c 0,0 0.239013,0.239048 0.239013,0.239048 0,0 0,-0.239048 0,-0.239048 0,0 -0.239013,0 -0.239013,0 z m 8.605706,0.478089 c 0,0 0.2391,0.239109 0.2391,0.239109 0,0 0,-0.239109 0,-0.239109 0,0 -0.2391,0 -0.2391,0 z m 12.4306,3.439922 c -1.34587,0.425541 -1.51082,-0.764955 -1.39127,-1.766522 0.15059,-1.245465 0.42314,-1.577748 1.6303,-1.6734 0,0 -0.47807,2.868663 -0.47807,2.868663 2.06778,-1.8718 0.79359,-2.703728 2.86853,-2.868663 0,0 -0.47803,2.868663 -0.47803,2.868663 0,0 0.95617,-0.717215 0.95617,-0.717215 -0.39681,1.305232 -1.61116,2.012817 -2.15145,0.717215 -0.33463,0.236628 -0.54259,0.439824 -0.95618,0.571259 z M 61.736858,33.623939 c 1.085276,-0.580867 1.12595,-0.975322 1.195228,-2.151426 -1.085261,0.580889 -1.125889,0.975302 -1.195228,2.151426 z m 11.235336,0 c 1.085268,-0.580867 1.125937,-0.975322 1.195242,-2.151426 -1.085276,0.580889 -1.125944,0.975302 -1.195242,2.151426 z m 8.84482,0 c 1.085285,-0.580867 1.125922,-0.975322 1.195237,-2.151426 -1.085281,0.580889 -1.1259,0.975302 -1.195237,2.151426 z m 9.083889,0 c 1.166552,-0.40878 0.951404,-1.042215 0.956174,-2.151426 -1.049409,0.59278 -0.94187,1.03267 -0.956174,2.151426 z M 78.470294,31.950554 c 0,0 0.239083,0.239109 0.239083,0.239109 0,0 0,-0.239109 0,-0.239109 0,0 -0.239083,0 -0.239083,0 z m 33.227896,1.434365 c 0,0 1.19525,0.478107 1.19525,0.478107 0,0 -0.23912,-1.434343 -0.23912,-1.434343 0,0 -0.95613,0.956236 -0.95613,0.956236 z m -0.23907,0 c 0,0 0.23907,0.23902 0.23907,0.23902 0,0 0,-0.23902 0,-0.23902 0,0 -0.23907,0 -0.23907,0 z m -42.789834,0.956148 c 0,0 0.239089,0.239063 0.239089,0.239063 0,0 0,-0.239063 0,-0.239063 0,0 -0.239089,0 -0.239089,0 z m 17.92871,0 c 0,0 0.239063,0.239063 0.239063,0.239063 0,0 0,-0.239063 0,-0.239063 0,0 -0.239063,0 -0.239063,0 z m -18.167758,1.195235 c 0,0 0.239048,0.239041 0.239048,0.239041 0,0 0,-0.239041 0,-0.239041 0,0 -0.239048,0 -0.239048,0 z m 17.928737,0 c 0,0 0.239021,0.239041 0.239021,0.239041 0,0 0,-0.239041 0,-0.239041 0,0 -0.239021,0 -0.239021,0 z"
     style="fill:#000009;fill-opacity:0.99497485;stroke:#000000;stroke-width:0.23904926;stroke-opacity:0.96190476"
     inkscape:connector-curvature="0" />
</svg>
